<?xml version="1.0" encoding="UTF-8"?>
<svg id="Layer_1" data-name="Layer 1" xmlns="http://www.w3.org/2000/svg" viewBox="0 0 926.51 407.41">
  <defs>
    <style>
      .cls-1 {
        fill: #fff;
      }
    </style>
  </defs>
  <path d="M284.27,53.52V18.12L301.92.95c5.87.76,12.23.59,18.21.5,44.89-.73,89.92-.43,134.87-.44,14.86,10.93,29.86,22.05,44.09,33.82,2.29,1.89,4.43,4.47,6.91,6.22v-21.59l19.37-17.14,1.81-.86c26.54.37,53.17-.37,79.65-.49,40.09-.19,80.25.79,120.25-.89l53.23,9.56,15.33,11.78,15.67-20.89,58.67.02c.96.18,1.59,1.1,2.24,1.77,10.3,10.6,20.78,24.26,30.05,35.84,8.12,10.14,16.06,20.43,24.25,30.51-.17,65.6-.89,131.29-1.06,196.98l-14.25,14.29,12.42,12.86c0,9.5.03,19,.03,28.5,0,24.52-.06,49.27.41,73.9.06,3.32,1.2,6.97-.03,10.39-3.89.57-7.82.57-11.77.51-46.24-.67-92.62-.44-138.92-.5l-1.76,1.36-1.59-2.41-54.29-34.97-1.79,36.06h-98.18l-57.2-40.3c-1.01-.74-1.23-2.37-1.35-3.55-1.4-14.17-1.38-29.31-2.24-43.61-3.68-61.44-7.54-122.87-11.12-184.31-.12-1.99.07-4.02,0-6.01h-50.76v261.53l-14.08,16.59c-.87-.13-1.69-.37-2.6-.36-30.16.21-60.39,0-90.38.46l-55.47-33.58-1.19-.56c-2.93,7.5-6.09,15.44-9.54,22.73-1.18,2.5-3.16,7.07-4.66,9.14-.51.69-.81,1.2-1.74,1.38-2.95.55-8.25-.11-11.59,0-45.58,1.54-91.46-.2-137.11.46v1.77s-74.77-56.56-74.77-56.56c-.44-1.05-.62-2.16-.72-3.29-1.04-12.32-.3-28.23-.45-40.95-.5-44.52-.31-89.01-1.4-133.48L5.35,114.48c-.42-.76-.59-1.57-.69-2.42-.54-4.77-.17-10.7-.43-15.6C2.8,69.38,1.3,42.35,0,15.21L15.54.52c1.35-.77,5.75-.46,7.59-.42,69.02,1.75,138.38.47,207.47,1.8,3.55.07,7.17.07,10.73,0,1.74-.04,3.4-1.34,4.65.65,12.64,17.07,24.85,34.54,38.3,50.97ZM889.79,369.8v-90.59l-120.19-6.7c-.46-16.25-.21-32.47-.45-48.74-.84-55.74-2.01-111.61-2.71-167.34-.11-8.43,1.32-23.6-.09-31.07-.11-.58-.29-1.15-.55-1.67l-52.11-11.12,1.58,44.71c3.35,94.54,6.84,189.06,10.24,283.57.28,7.8.17,15.63.62,23.42l163.65,5.54ZM807.96,255.08l56.92,2.08,26.6-28.11c-.06-61.13-.87-122.19-.81-183.31l-26.11-30.88c-15.81-.38-31.6-2.26-47.34-2.07l-33.75,44.16,3.03,174.4,21.45,23.73ZM127.1,264.08h-21.37l1.33,83.25,120.88,8.89,1.37-.86c15.72-21.31,32.57-41.88,47.82-63.48-.56-75.17-.38-150.4-.96-225.58-12.98-17.56-27.22-34.16-39.85-51.96l-219.19-.89,2.67,89.93,104.19,3.56,3.11,157.14ZM696.56,109.16l6.26-95.06-179.88,5.6,5.29,95.49,28.97-.25,16.96,240.34,63.67-1.11,3.11-93.17,46.29-9.21-6.26-68.29-43.19.45,5.77-76.28,53.01,1.5ZM358.62,233.81v-96.38l-61-1.12c.14,21.62.16,43.17.43,64.79.43,35.11,1.3,70.36,1.82,105.47.13,8.73-.2,17.48.05,26.21l28.66,24.77c9.65.13,19.3-.14,28.95,0,1.16.02,2.25.47,3.52.48,22.38.25,44.8-.16,67.17-.1l13.87-18.63,12.62-318.05-.86-5.95-154.44,1.27.89,100.17,75.25,2.67-5.8,104.82c-.37,1.93-9.21,7.93-11.12,9.58ZM330.5,369.21l-.83.14-.44,1.11,21.81,12.91c-6.49-4.67-13.07-9.56-20.13-13.39-.38-.2-.38-.75-.42-.77Z"/>
  <path class="cls-1" d="M127.1,264.08l-3.11-157.14-104.19-3.56-2.67-89.93,219.19.89c12.63,17.8,26.87,34.4,39.85,51.96.58,75.18.4,150.41.96,225.58-15.25,21.6-32.1,42.17-47.82,63.48l-1.37.86-120.88-8.89-1.33-83.25h21.37ZM227.27,266.75l1.36-175.19c-.33-2.47-6.15-6.04-7.38-8.66l-14.89,14.92c-1.2,51.75-1.31,103.6-2.7,155.33-.15,5.45-.44,8.65,4.34,12.17l19.27,1.43Z"/>
  <path class="cls-1" d="M358.62,233.81c1.92-1.65,10.75-7.65,11.12-9.58l5.8-104.82-75.25-2.67-.89-100.17,154.44-1.27.86,5.95-12.62,318.05-13.87,18.63c-22.37-.06-44.79.36-67.17.1-1.27-.01-2.36-.47-3.52-.48-9.65-.13-19.3.14-28.95,0l-28.66-24.77c-.25-8.73.07-17.48-.05-26.21-.52-35.11-1.39-70.36-1.82-105.47-.26-21.63-.29-43.17-.43-64.79l61,1.12v96.38Z"/>
  <polygon class="cls-1" points="696.56 109.16 643.55 107.67 637.79 183.95 680.98 183.5 687.23 251.79 640.94 261 637.83 354.17 574.16 355.29 557.2 114.94 528.23 115.2 522.94 19.71 702.82 14.1 696.56 109.16"/>
  <path class="cls-1" d="M889.79,369.8l-163.65-5.54c-.45-7.79-.34-15.62-.62-23.42-3.4-94.51-6.89-189.03-10.24-283.57l-1.58-44.71,52.11,11.12c.26.53.44,1.1.55,1.67,1.41,7.47-.01,22.64.09,31.07.7,55.74,1.87,111.61,2.71,167.34.24,16.27,0,32.5.45,48.74l120.19,6.7v90.59Z"/>
  <path class="cls-1" d="M807.96,255.08l-21.45-23.73-3.03-174.4,33.75-44.16c15.74-.19,31.53,1.69,47.34,2.07l26.11,30.88c-.06,61.12.75,122.17.81,183.31l-26.6,28.11-56.92-2.08ZM847.94,202.2l4.43-102.19,2.2-41.41-7.28-11.15-9.59.94-8.88,12.04c.15,42.95-.57,85.95.66,128.83l10.01,12.25,8.46.68Z"/>
  <path d="M330.5,369.21s.04.57.42.77c7.06,3.83,13.63,8.73,20.13,13.39l-21.81-12.91.44-1.11.83-.14Z"/>
  <path d="M227.27,266.75l-19.27-1.43c-4.78-3.52-4.49-6.72-4.34-12.17,1.39-51.73,1.5-103.58,2.7-155.33l14.89-14.92c1.23,2.62,7.05,6.19,7.38,8.66l-1.36,175.19Z"/>
  <path d="M847.94,202.2l-8.46-.68-10.01-12.25c-1.23-42.89-.51-85.88-.66-128.83l8.88-12.04,9.59-.94,7.28,11.15-2.2,41.41-4.43,102.19Z"/>
</svg>